<mxfile host="app.diagrams.net" modified="2021-09-30T11:06:44.265Z" agent="5.0 (Windows NT 10.0; WOW64) AppleWebKit/537.36 (KHTML, like Gecko) Chrome/91.0.4472.124 Safari/537.36" etag="mEgv7ghcTL7bLz41EJAT" version="15.3.8" type="github">
  <diagram id="w2BI5Dd3woxVxx0NkbVP" name="顶顶顶顶">
    <mxGraphModel dx="1422" dy="738" grid="1" gridSize="10" guides="1" tooltips="1" connect="1" arrows="1" fold="1" page="1" pageScale="1" pageWidth="827" pageHeight="1169" math="0" shadow="0">
      <root>
        <mxCell id="0" />
        <mxCell id="1" parent="0" />
      </root>
    </mxGraphModel>
  </diagram>
</mxfile>
